{
  "accessors": [
    {
      "bufferView": 2,
      "componentType": 5126,
      "count": 1398,
      "max": [
        0.3084474802017212,
        0.9619194269180298,
        0.9619194269180298
      ],
      "min": [
        -0.2080046534538269,
        -0.9619190692901611,
        -0.9619190692901611
      ],
      "type": "VEC3"
    },
    {
      "bufferView": 2,
      "byteOffset": 16776,
      "componentType": 5126,
      "count": 1398,
      "max": [
        1.0,
        1.0,
        1.0
      ],
      "min": [
        -1.0,
        -1.0,
        -1.0
      ],
      "type": "VEC3"
    },
    {
      "bufferView": 3,
      "componentType": 5126,
      "count": 1398,
      "max": [
        1.0,
        0.9990633130073547,
        0.9990639090538025,
        1.0
      ],
      "min": [
        -0.9997857213020325,
        -0.99906325340271,
        -0.9990630149841309,
        1.0
      ],
      "type": "VEC4"
    },
    {
      "bufferView": 1,
      "componentType": 5126,
      "count": 1398,
      "max": [
        0.9298055171966553,
        0.980302095413208
      ],
      "min": [
        0.0053321197628974915,
        0.0053321123123168945
      ],
      "type": "VEC2"
    },
    {
      "bufferView": 1,
      "byteOffset": 11184,
      "componentType": 5126,
      "count": 1398,
      "max": [
        0.9298055171966553,
        0.980302095413208
      ],
      "min": [
        0.0053321197628974915,
        0.0053321123123168945
      ],
      "type": "VEC2"
    },
    {
      "bufferView": 1,
      "byteOffset": 22368,
      "componentType": 5126,
      "count": 1398,
      "max": [
        0.9298055171966553,
        0.980302095413208
      ],
      "min": [
        0.0053321197628974915,
        0.0053321123123168945
      ],
      "type": "VEC2"
    },
    {
      "bufferView": 0,
      "componentType": 5125,
      "count": 5862,
      "type": "SCALAR"
    },
    {
      "bufferView": 2,
      "byteOffset": 33552,
      "componentType": 5126,
      "count": 5568,
      "max": [
        0.9346608519554138,
        0.6033744812011719,
        2.1963250637054443
      ],
      "min": [
        -0.9346608519554138,
        -4.844451904296875,
        0.8735151290893555
      ],
      "type": "VEC3"
    },
    {
      "bufferView": 2,
      "byteOffset": 100368,
      "componentType": 5126,
      "count": 5568,
      "max": [
        0.9999796152114868,
        1.0,
        1.0
      ],
      "min": [
        -0.9999305605888367,
        -1.0,
        -1.0
      ],
      "type": "VEC3"
    },
    {
      "bufferView": 3,
      "byteOffset": 22368,
      "componentType": 5126,
      "count": 5568,
      "max": [
        0.9994308948516846,
        1.0,
        1.0,
        1.0
      ],
      "min": [
        -0.9999983310699463,
        -1.0,
        -1.0,
        -1.0
      ],
      "type": "VEC4"
    },
    {
      "bufferView": 1,
      "byteOffset": 33552,
      "componentType": 5126,
      "count": 5568,
      "max": [
        0.9930291771888733,
        0.992235004901886
      ],
      "min": [
        0.0053321197628974915,
        0.0053321123123168945
      ],
      "type": "VEC2"
    },
    {
      "bufferView": 1,
      "byteOffset": 78096,
      "componentType": 5126,
      "count": 5568,
      "max": [
        0.9930291771888733,
        0.992235004901886
      ],
      "min": [
        0.0053321197628974915,
        0.0053321123123168945
      ],
      "type": "VEC2"
    },
    {
      "bufferView": 1,
      "byteOffset": 122640,
      "componentType": 5126,
      "count": 5568,
      "max": [
        0.9930291771888733,
        0.992235004901886
      ],
      "min": [
        0.0053321197628974915,
        0.0053321123123168945
      ],
      "type": "VEC2"
    },
    {
      "bufferView": 0,
      "byteOffset": 23448,
      "componentType": 5125,
      "count": 21489,
      "type": "SCALAR"
    },
    {
      "bufferView": 2,
      "byteOffset": 167184,
      "componentType": 5126,
      "count": 1398,
      "max": [
        0.2080046534538269,
        0.9619194269180298,
        0.9619194269180298
      ],
      "min": [
        -0.3084474802017212,
        -0.9619190692901611,
        -0.9619190692901611
      ],
      "type": "VEC3"
    },
    {
      "bufferView": 2,
      "byteOffset": 183960,
      "componentType": 5126,
      "count": 1398,
      "max": [
        1.0,
        1.0,
        1.0
      ],
      "min": [
        -1.0,
        -1.0,
        -1.0
      ],
      "type": "VEC3"
    },
    {
      "bufferView": 3,
      "byteOffset": 111456,
      "componentType": 5126,
      "count": 1398,
      "max": [
        0.9997857213020325,
        0.9990633130073547,
        0.9990639686584473,
        -1.0
      ],
      "min": [
        -1.0,
        -0.99906325340271,
        -0.9990630745887756,
        -1.0
      ],
      "type": "VEC4"
    },
    {
      "bufferView": 1,
      "byteOffset": 167184,
      "componentType": 5126,
      "count": 1398,
      "max": [
        0.9298055171966553,
        0.980302095413208
      ],
      "min": [
        0.0053321197628974915,
        0.0053321123123168945
      ],
      "type": "VEC2"
    },
    {
      "bufferView": 1,
      "byteOffset": 178368,
      "componentType": 5126,
      "count": 1398,
      "max": [
        0.9298055171966553,
        0.980302095413208
      ],
      "min": [
        0.0053321197628974915,
        0.0053321123123168945
      ],
      "type": "VEC2"
    },
    {
      "bufferView": 1,
      "byteOffset": 189552,
      "componentType": 5126,
      "count": 1398,
      "max": [
        0.9298055171966553,
        0.980302095413208
      ],
      "min": [
        0.0053321197628974915,
        0.0053321123123168945
      ],
      "type": "VEC2"
    },
    {
      "bufferView": 0,
      "byteOffset": 109404,
      "componentType": 5125,
      "count": 5862,
      "type": "SCALAR"
    }
  ],
  "asset": {
    "extras": {
      "author": "sch0i (https://sketchfab.com/sch0i)",
      "license": "CC-BY-4.0 (http://creativecommons.org/licenses/by/4.0/)",
      "source": "https://sketchfab.com/3d-models/medieval-cart-5388ccf5011646d8ba0ae9e58e7ba777",
      "title": "Medieval Cart"
    },
    "generator": "Sketchfab-15.16.0",
    "version": "2.0"
  },
  "bufferViews": [
    {
      "buffer": 0,
      "byteLength": 132852,
      "name": "floatBufferViews",
      "target": 34963
    },
    {
      "buffer": 0,
      "byteLength": 200736,
      "byteOffset": 132852,
      "byteStride": 8,
      "name": "floatBufferViews",
      "target": 34962
    },
    {
      "buffer": 0,
      "byteLength": 200736,
      "byteOffset": 333588,
      "byteStride": 12,
      "name": "floatBufferViews",
      "target": 34962
    },
    {
      "buffer": 0,
      "byteLength": 133824,
      "byteOffset": 534324,
      "byteStride": 16,
      "name": "floatBufferViews",
      "target": 34962
    }
  ],
  "buffers": [
    {
      "byteLength": 668148,
      "uri": "scene.bin"
    }
  ],
  "extensionsUsed": [
    "KHR_materials_specular"
  ],
  "images": [
    {
      "uri": "textures/MedievalCart_baseColor.png"
    },
    {
      "uri": "textures/MedievalCart_metallicRoughness.png"
    },
    {
      "uri": "textures/MedievalCart_normal.png"
    }
  ],
  "materials": [
    {
      "doubleSided": true,
      "extensions": {
        "KHR_materials_specular": {
          "specularColorFactor": [
            1.0,
            1.0,
            1.0
          ],
          "specularFactor": 0.29104850605258986
        }
      },
      "name": "MedievalCart",
      "normalTexture": {
        "index": 2
      },
      "occlusionTexture": {
        "index": 1
      },
      "pbrMetallicRoughness": {
        "baseColorTexture": {
          "index": 0
        },
        "metallicRoughnessTexture": {
          "index": 1
        }
      }
    }
  ],
  "meshes": [
    {
      "name": "MedievalCart_wheelRight_MedievalCart_0",
      "primitives": [
        {
          "attributes": {
            "NORMAL": 1,
            "POSITION": 0,
            "TANGENT": 2,
            "TEXCOORD_0": 3,
            "TEXCOORD_1": 4,
            "TEXCOORD_2": 5
          },
          "indices": 6,
          "material": 0,
          "mode": 4
        }
      ]
    },
    {
      "name": "MedievalCart_Base_MedievalCart_0",
      "primitives": [
        {
          "attributes": {
            "NORMAL": 8,
            "POSITION": 7,
            "TANGENT": 9,
            "TEXCOORD_0": 10,
            "TEXCOORD_1": 11,
            "TEXCOORD_2": 12
          },
          "indices": 13,
          "material": 0,
          "mode": 4
        }
      ]
    },
    {
      "name": "MedievalCart_wheelLeft_MedievalCart_0",
      "primitives": [
        {
          "attributes": {
            "NORMAL": 15,
            "POSITION": 14,
            "TANGENT": 16,
            "TEXCOORD_0": 17,
            "TEXCOORD_1": 18,
            "TEXCOORD_2": 19
          },
          "indices": 20,
          "material": 0,
          "mode": 4
        }
      ]
    }
  ],
  "nodes": [
    {
      "children": [
        1
      ],
      "matrix": [
        1.0,
        0.0,
        0.0,
        0.0,
        0.0,
        2.220446049250313e-16,
        -1.0,
        0.0,
        0.0,
        1.0,
        2.220446049250313e-16,
        0.0,
        0.0,
        0.0,
        0.0,
        1.0
      ],
      "name": "Sketchfab_model"
    },
    {
      "children": [
        2
      ],
      "matrix": [
        0.009999999776482582,
        0.0,
        0.0,
        0.0,
        0.0,
        0.0,
        0.009999999776482582,
        0.0,
        0.0,
        -0.009999999776482582,
        0.0,
        0.0,
        0.0,
        0.0,
        0.0,
        1.0
      ],
      "name": "4fadf4d4f7604f2881727baad7f16bb8.fbx"
    },
    {
      "children": [
        3,
        5,
        7
      ],
      "name": "RootNode"
    },
    {
      "children": [
        4
      ],
      "matrix": [
        100.0,
        0.0,
        0.0,
        0.0,
        0.0,
        -1.629206793918314e-05,
        -99.99999999999868,
        0.0,
        0.0,
        99.99999999999868,
        -1.629206793918314e-05,
        0.0,
        102.32825469970703,
        96.13948059082031,
        -1.317751407623291,
        1.0
      ],
      "name": "MedievalCart_wheelRight"
    },
    {
      "mesh": 0,
      "name": "MedievalCart_wheelRight_MedievalCart_0"
    },
    {
      "children": [
        6
      ],
      "matrix": [
        100.0,
        0.0,
        0.0,
        0.0,
        0.0,
        -1.629206793918314e-05,
        -99.99999999999868,
        0.0,
        0.0,
        99.99999999999868,
        -1.629206793918314e-05,
        0.0,
        0.0,
        0.0,
        0.0,
        1.0
      ],
      "name": "MedievalCart_Base"
    },
    {
      "mesh": 1,
      "name": "MedievalCart_Base_MedievalCart_0"
    },
    {
      "children": [
        8
      ],
      "matrix": [
        100.0,
        0.0,
        0.0,
        0.0,
        -0.0,
        -1.629206793918314e-05,
        -99.99999999999868,
        0.0,
        0.0,
        99.99999999999868,
        -1.629206793918314e-05,
        0.0,
        -102.32825469970703,
        96.13948059082031,
        -1.317751407623291,
        1.0
      ],
      "name": "MedievalCart_wheelLeft"
    },
    {
      "mesh": 2,
      "name": "MedievalCart_wheelLeft_MedievalCart_0"
    }
  ],
  "samplers": [
    {
      "magFilter": 9729,
      "minFilter": 9987,
      "wrapS": 10497,
      "wrapT": 10497
    }
  ],
  "scene": 0,
  "scenes": [
    {
      "name": "Sketchfab_Scene",
      "nodes": [
        0
      ]
    }
  ],
  "textures": [
    {
      "sampler": 0,
      "source": 0
    },
    {
      "sampler": 0,
      "source": 1
    },
    {
      "sampler": 0,
      "source": 2
    }
  ]
}
